<?xml version="1.0" encoding="UTF-8" standalone="no"?>
<!DOCTYPE svg PUBLIC "-//W3C//DTD SVG 1.1//EN" "http://www.w3.org/Graphics/SVG/1.1/DTD/svg11.dtd">
<svg width="100%" height="100%" viewBox="0 0 41 44" version="1.1" xmlns="http://www.w3.org/2000/svg" xmlns:xlink="http://www.w3.org/1999/xlink" xml:space="preserve" xmlns:serif="http://www.serif.com/" style="fill-rule:evenodd;clip-rule:evenodd;stroke-linejoin:round;stroke-miterlimit:2;">
    <g transform="matrix(1,0,0,1,-0.127423,0)">
        <g id="Capa_1">
            <g>
                <path d="M20.7,18.2L15.7,18.2C15.3,18.2 14.9,18 14.9,17.5C14.9,17.1 15.2,16.8 15.7,16.8L20.7,16.8C21.1,16.8 21.5,17 21.5,17.5C21.5,17.9 21.2,18.2 20.7,18.2Z" style="fill:rgb(255,96,0);fill-rule:nonzero;"/>
                <path d="M18.4,15.2L15.5,15.2C15.2,15.2 15.1,14.9 15.1,14.5C15.1,14.1 15.3,13.8 15.5,13.8L18.4,13.8C18.7,13.8 18.8,14.1 18.8,14.5C18.8,14.9 18.6,15.2 18.4,15.2Z" style="fill:rgb(255,96,0);fill-rule:nonzero;"/>
                <g>
                    <path d="M33.3,27.8C33,27.7 32.7,27.5 32.6,27.3C32.5,27 32.5,26.7 32.5,26.3L32.5,6.7C32.4,5.6 31.9,5.1 30.9,5L26.7,5C26.4,5 26.2,5.1 26.1,5.2C25.9,5.4 25.9,5.7 25.9,6L25.9,10.1C25.9,11.6 25.4,12.1 23.9,12.2L21.4,12.2C19.9,12.1 19.3,11.6 19.3,10L19.3,6.1C19.3,5.7 19.2,5.5 19.1,5.3C19,5 18.7,4.9 18.4,4.9L14.7,4.9C13.2,4.9 12.7,5.4 12.7,6.9L12.7,24.1L12.6,24.1C12.2,24.1 11.8,24.1 11.4,24.2L11.4,16.8C11.4,13.5 11.4,10.2 11.3,6.9C11.3,6 11.6,5.1 12.2,4.5C12.8,3.9 13.6,3.5 14.5,3.5L14.6,3.5C16.5,3.5 18.6,3.6 21.2,3.6L30.4,3.6C32.8,3.6 33.9,4.8 34,7.1L34,25.8C34,26.3 33.9,26.9 33.8,27.4C33.8,27.5 33.4,27.8 33.3,27.8Z" style="fill:rgb(255,96,0);fill-rule:nonzero;"/>
                    <g id="n5Tjiy_00000011740773850440017590000007269433356662509456_" transform="matrix(0.94826,0,0,1,1.06209,5)">
                        <g>
                            <path d="M39.4,24.5C38.9,23.7 38.2,23 37,23C36.2,23 35.6,23.4 35,23.8C34.2,24.6 33.4,25.4 32.5,26.1C32.4,26.3 32.3,26.4 32.2,26.6C32,26.8 31.8,26.8 31.6,26.5C30.9,25.3 29.7,25 28.4,25C27.1,25.1 25.7,25 24.4,25C23.7,25 23.5,24.9 23.3,24.6C23.2,24.5 23.1,24.5 22.9,24.4C22.8,24.3 22.6,24.2 22.5,24.1C22.1,23.9 21.9,23.6 21.6,23.3L21.6,23.4C21.5,23.3 21.3,23.3 21.2,23.2C20.8,22.8 20.4,22.4 20,22C18.4,20.7 16.6,19.9 14.5,20.1L12.9,20.1C12.8,20.1 12.7,20.1 12.6,20C12.4,20.1 12.1,20.1 11.9,20.1L11.8,20.1C11.4,20.1 11,20 10.7,19.9C10.6,20 10.5,20 10.4,20.1C9.7,20.2 9.4,20.1 9.2,19.5C8.8,18.5 8.7,18.4 7.7,18.4L2.8,18.4C1.4,18.4 1.2,18.7 1.2,20.1L1.2,31.3C1.2,33.5 2.2,34.5 4.3,34.5L6.2,34.5C7.9,34.5 8.6,34 9.2,32.4C9.4,31.7 9.4,31.7 10.1,32.1C11.5,32.9 12.9,33.6 14.3,34.3C15.4,34.8 16.6,35.1 17.8,35.1C21.5,35.1 25.1,35.2 28.8,35.1C30.9,35 32.9,34.4 34.5,32.7C35.8,31.2 37.3,29.9 38.6,28.5C39,28.1 39.4,27.6 39.7,27.2C39.9,26.3 40,25.3 39.4,24.5ZM7.6,31.4C7.6,31.8 7.6,32.2 7.5,32.5C7.4,32.8 7,33 6.8,33.1C5.7,33.2 4.7,33.2 3.6,33.1C2.9,33.1 2.6,32.7 2.5,32L2.5,20.9C2.5,19.9 2.5,19.9 3.5,19.9L6.7,19.9C7.6,19.9 7.6,19.9 7.6,20.9L7.6,31.4ZM38.2,26.5C38.1,26.7 37.9,26.9 37.8,27.1C36.3,28.7 34.7,30.4 33.1,32C31.9,33.2 30.5,33.7 28.8,33.7L23,33.7C21.3,33.7 19.5,33.6 17.8,33.7C16.5,33.8 15.2,33.5 14.1,32.9C12.6,32.2 11.2,31.3 9.7,30.5C9.2,30.1 9,29.7 9.1,29L9.1,22.5C9.1,21.6 9.1,21.6 10,21.6L15.9,21.6C17.1,21.6 18.1,22.2 19,23C19.6,23.5 20.1,24.1 20.6,24.6C21.8,26 23.4,26.5 25.2,26.5L29.2,26.5C29.8,26.5 30.2,26.8 30.3,27.4C30.4,27.9 30.4,28.5 29.8,28.8C29.6,28.9 29.3,29 29,29C26.1,29 23.1,29.1 20.2,29C19.3,29 18.4,28.5 17.5,28.1C17.1,27.9 16.8,27.8 16.5,28.3C16.3,28.7 16.4,29.1 16.8,29.3C17.4,29.6 18.1,30 18.8,30.2C19.7,30.4 20.6,30.5 21.5,30.5L28.4,30.5C29.6,30.5 30.5,30.1 31.4,29.1C32.7,27.6 34.2,26.2 35.6,24.8C36.4,24 37.1,24 37.8,24.6C38.4,25.1 38.6,25.8 38.2,26.5Z" style="fill:rgb(255,96,0);fill-rule:nonzero;"/>
                        </g>
                    </g>
                </g>
            </g>
        </g>
    </g>
</svg>
