<?xml version="1.0" encoding="UTF-8" standalone="no"?>
<!DOCTYPE svg PUBLIC "-//W3C//DTD SVG 1.1//EN" "http://www.w3.org/Graphics/SVG/1.1/DTD/svg11.dtd">
<svg width="100%" height="100%" viewBox="0 0 41 44" version="1.1" xmlns="http://www.w3.org/2000/svg" xmlns:xlink="http://www.w3.org/1999/xlink" xml:space="preserve" xmlns:serif="http://www.serif.com/" style="fill-rule:evenodd;clip-rule:evenodd;stroke-linejoin:round;stroke-miterlimit:2;">
    <g id="Capa_1" transform="matrix(1,0,0,1,-0.0409508,0)">
        <g id="qG3DGL_00000173844738465022492470000013485087309098527901_">
            <g>
                <path d="M4.4,12.8L4.4,8.7C4.5,6.5 4.8,6.2 7,6.7C9,7.1 11.1,7.5 13.3,7C15.5,6.4 17.5,5.5 19.1,3.9C20.4,2.6 20.4,2.6 21.6,3.8C24.8,7 28.5,7.9 32.9,6.9C33.2,6.8 33.4,6.8 33.7,6.8C36.2,6.3 36.2,6.3 36.4,8.8C36.8,15.3 36.1,21.6 33.6,27.6C31.4,32.9 27.8,37.2 22.7,40C21.1,40.9 19.8,40.9 18.2,40C13,37.1 9.4,32.8 7.2,27.3C5.3,22.6 4.2,17.8 4.4,12.8ZM9.8,9.2C9.2,9.1 8.5,9.1 7.9,9C6.3,8.9 6.3,8.9 6.3,10.3C6.3,15.1 6.8,19.9 8.4,24.5C10.3,30.1 13.3,34.8 18.6,37.8C19.9,38.6 21,38.5 22.3,37.8C25,36.2 27.2,34.2 28.9,31.7C33.3,25.4 34.4,18.1 34.5,10.6C34.5,8.9 34.5,8.9 32.8,9.1C28.5,9.5 24.4,9.2 21,6C20.5,5.5 20.1,5.6 19.7,6C16.9,8.6 13.5,9.5 9.8,9.2Z" style="fill:rgb(255,96,0);fill-rule:nonzero;"/>
            </g>
        </g>
        <path d="M19.7,28.1C18.7,28.1 17.9,27.9 17.3,27.4C17.2,27.3 17.1,27.3 17.1,27.3C17,27.3 16.8,27.5 16.7,27.5C16.1,27.6 15.4,27.7 14.7,27.7C14.1,27.7 13.4,27.7 12.7,27.5C12.4,27.5 11.7,27.2 11.7,26.1L11.7,18.9C11.7,17.7 12.1,17.3 13.2,17.3C13.9,17.3 14.6,17.3 15.2,17.4C15.7,17.4 16.2,17.4 16.6,17.5L16.8,17.5C17,17.2 17.3,16.9 17.6,16.6C18.1,16 18.6,15.5 19,14.9C19.4,14.2 19.7,13.5 19.9,12.6C20,12 20.2,11.5 20.5,11.2C20.9,10.7 21.5,10.3 22.1,10.3C22.8,10.3 23.5,10.7 23.8,11.3C24.1,11.9 24.3,12.6 24.2,13.3C24.1,14.8 23.8,15.9 23.2,16.8C23.2,16.9 23.1,16.9 23.1,17L25.3,17C25.9,17 26.5,17.1 27.2,17.2C28,17.4 28.6,17.8 28.8,18.5C29.1,19.1 29,19.9 28.5,20.6C28.3,20.8 28.3,21 28.4,21.3C28.6,22.1 28.4,22.8 27.9,23.3C27.7,23.5 27.7,23.5 27.8,23.6C28,24.3 27.8,24.9 27.2,25.5C26.9,25.7 26.8,26 26.7,26.4C26.3,27.7 25.8,28 24.5,28L21.5,28C21,28 20.4,28 19.7,28.1C19.8,28.1 19.7,28.1 19.7,28.1ZM22.1,12.2C22,12.2 21.9,12.2 21.8,12.5C21.7,12.7 21.6,13 21.6,13.2C21.3,14.5 20.8,15.6 20,16.5C19.4,17.2 18.7,18.1 18,18.9C17.7,19.2 17.6,19.5 17.6,19.9L17.6,25C17.6,25.6 17.8,25.8 18.2,25.9C18.6,26 18.9,26.1 19.3,26.2C20.2,26.4 21.1,26.4 21.8,26.4L24.5,26.4C25.3,26.4 25.3,26.4 25.4,25.5C25.4,25.2 25.4,24.6 26.1,24.3C26.4,24.2 26.5,24.1 26.3,23.6C26.2,23.4 26.1,23.3 26.1,23.1L25.9,22.8C25.8,22.7 25.8,22.6 25.9,22.4C25.9,22.3 26,22.2 26.2,22.2L26.5,22.1C26.7,22.1 26.8,22 26.9,21.9C27.1,21.8 27.2,21.7 27.2,21.7C27.2,21.7 27.2,21.6 27.1,21.4C27,21.3 27,21.2 26.9,21.1C26.8,21 26.7,20.8 26.6,20.7C26.5,20.4 26.6,20 26.8,19.9C26.9,19.8 27,19.8 27.1,19.7C27.2,19.7 27.3,19.6 27.3,19.6C27.4,19.5 27.5,19.4 27.5,19.2C27.5,19.1 27.4,18.9 27.2,18.8C27.1,18.7 26.9,18.7 26.8,18.7C26.2,18.7 25.5,18.6 24.9,18.6L23.6,18.6C23.2,18.6 22.9,18.6 22.5,18.5C22.1,18.4 21.7,18.3 21.6,18C21.4,17.7 21.4,17.4 21.5,16.9C21.5,16.8 21.6,16.7 21.6,16.6C21.6,16.6 21.6,16.5 21.7,16.5C21.8,16.2 21.9,16 22,15.7C22.2,15.1 22.5,14.4 22.6,13.8C22.7,13.4 22.7,12.9 22.6,12.4C22.6,12.3 22.4,12.2 22.1,12.2ZM13.5,26L15.8,26L15.8,19L13.7,19L13.7,18.6L13.7,19L13.6,19L13.6,25.6C13.4,25.9 13.4,26 13.5,26C13.4,26 13.5,26 13.5,26Z" style="fill:rgb(255,96,0);fill-rule:nonzero;"/>
    </g>
</svg>
