<?xml version="1.0" encoding="UTF-8" standalone="no"?>
<!DOCTYPE svg PUBLIC "-//W3C//DTD SVG 1.1//EN" "http://www.w3.org/Graphics/SVG/1.1/DTD/svg11.dtd">
<svg width="100%" height="100%" viewBox="0 0 41 44" version="1.1" xmlns="http://www.w3.org/2000/svg" xmlns:xlink="http://www.w3.org/1999/xlink" xml:space="preserve" xmlns:serif="http://www.serif.com/" style="fill-rule:evenodd;clip-rule:evenodd;stroke-linejoin:round;stroke-miterlimit:2;">
    <g id="Capa_1" transform="matrix(1,0,0,1,0,0.7)">
        <g transform="matrix(0.980195,0,0,1,0.31482,-1.25)">
            <path d="M35.6,40.4L14.2,40.4C12.8,40.4 11.6,39.9 10.6,39C9.7,38.1 9.2,36.8 9.2,35.5L9.2,11.9L8,11.9C6.1,11.9 4.3,11.8 2.4,11.8C2.2,11.8 2.1,11.7 2,11.6C1.9,11.6 1.9,11.5 1.8,11.5C1.7,11.5 1.7,11.4 1.7,11.3L1.7,8C2,5.8 3.6,4.3 6.1,4L28.2,4C30.5,4 33,5.5 33.3,8.3C33.4,10 33.4,11.7 33.4,13.5L33.4,15.9C33.4,16 33.3,16.1 33.2,16.1L31.9,16.3L31.8,16.3C31.8,16.3 31.7,16.2 31.7,16.1L31.7,15.6C31.7,15.3 31.6,15.1 31.6,14.8L31.6,8.7C31.6,7.5 31.1,6.6 30.1,6C29.7,5.8 29.2,5.6 28.8,5.6L10.2,5.6L10.2,5.7C10.9,6.6 11.2,7.6 11.2,9L11.2,17.5C11.2,23.2 11.2,29 11.1,34.8C11.1,36.1 11.4,37 12,37.7C12.6,38.3 13.5,38.7 14.7,38.7L14.9,38.7C16.9,38.7 19.1,38.6 21.8,38.6L32.5,38.6C31.7,37.2 31.4,36 31.7,34.6C31.7,34.5 31.7,34.5 31.8,34.5L32.4,34.1L32.5,34.1C32.6,34.1 32.6,34.1 32.6,34.2L33.2,34.7C33.2,34.7 33.3,34.8 33.3,34.9C33.4,37.8 34.5,38.5 36.6,38.8C36.7,38.8 36.7,38.8 36.7,38.9L37,39.4C37,39.5 37.1,39.5 37,39.6L36.9,39.8C36.9,39.9 36.8,40 36.8,40.1C36.5,40.5 36.2,40.6 35.9,40.6C36,40.4 35.6,40.4 35.6,40.4ZM9.3,10L9.3,9.8C9.4,8.7 9.4,7.8 8.8,6.9C8.3,6.2 7.3,5.6 6.4,5.6C6.2,5.6 6,5.6 5.9,5.7C4.6,6.1 3.8,6.7 3.7,7.8C3.6,8.3 3.6,8.8 3.7,9.4L3.7,10L9.3,10Z" style="fill:rgb(255,96,0);fill-rule:nonzero;"/>
        </g>
        <g transform="matrix(1,0,0,1,-0.418849,-1.25)">
            <path d="M29.6,35C28.7,34.8 28.7,34.1 28.7,33.7L28.7,29C26.5,27.3 25.5,25.2 25.8,22.7C26,21 26.7,19.5 28,18.4C29.2,17.3 30.7,16.7 32.4,16.7C34.4,16.7 36.2,17.5 37.5,18.9C38.8,20.3 39.4,22.2 39.2,24C39,25.9 38,27.6 36.3,28.9L36.3,33.6C36.3,34 36.3,34.6 35.6,34.9L35.5,34.9C34.9,34.8 34.4,34.4 33.8,34C33.4,33.7 33,33.5 32.6,33.3L29.7,35L29.6,35ZM32.3,31.4L32.4,31.4L34.3,32.5L34.3,29.8C33.6,30 33,30.1 32.4,30.1C31.8,30.1 31.2,30 30.6,29.8L30.6,32.4L32.3,31.4C32.2,31.4 32.3,31.4 32.3,31.4ZM32.2,18.4C29.6,18.4 27.5,20.6 27.5,23.3C27.4,24.5 27.8,25.7 28.7,26.6C29.6,27.6 31,28.3 32.4,28.3C35,28.3 37.3,26 37.3,23.4C37.3,21.1 35.8,18.5 32.4,18.4L32.2,18.4Z" style="fill:rgb(255,96,0);fill-rule:nonzero;"/>
        </g>
        <g transform="matrix(1,0,0,1,-0.418849,-1.25)">
            <path d="M27.7,10.8L14.1,10.8C14,10.8 13.9,10.7 13.9,10.6L13.9,9.6C13.9,9.5 13.9,9.4 14,9.4C14,9.4 14.1,9.4 14.1,9.3C14.2,9.2 14.3,9.2 14.4,9.2L27.9,9.2C28.3,9.2 28.8,9.3 29,10.1C29,10.2 29,10.3 28.9,10.3L28.7,10.4C28.5,10.5 28.4,10.7 28.2,10.7C28.1,10.7 28,10.8 27.9,10.8C28,10.8 27.7,10.8 27.7,10.8Z" style="fill:rgb(255,96,0);fill-rule:nonzero;"/>
        </g>
        <g transform="matrix(1,0,0,1,-0.418849,-1.25)">
            <path d="M15.2,13.5L14.1,13.5C14,13.5 13.9,13.4 13.9,13.3L13.9,12.4C13.9,12.3 14,12.2 14.1,12.2C14.2,12.2 14.2,12.2 14.3,12.1C14.4,12.1 14.6,12 14.7,12L28,12C28.4,12 28.8,12.1 29,12.7C29,13.2 28.7,13.6 28.2,13.6L27.8,13.6L15.2,13.5Z" style="fill:rgb(255,96,0);fill-rule:nonzero;"/>
        </g>
        <g transform="matrix(1,0,0,1,-0.418849,-1.25)">
            <path d="M28.1,16.2L14.1,16.2C14,16.2 13.9,16.1 13.9,16L13.9,15C13.9,14.9 14,14.8 14.1,14.8C14.8,14.6 19.1,14.5 22.8,14.5C25.4,14.5 27.5,14.5 28.6,14.6C28.7,14.6 28.7,14.6 28.8,14.7L29.2,15.2C29.3,15.3 29.3,15.4 29.2,15.5C29.1,15.6 29.1,15.6 29,15.7C28.9,15.8 28.7,16 28.5,16.1C28.4,16.2 28.2,16.2 28.1,16.2Z" style="fill:rgb(255,96,0);fill-rule:nonzero;"/>
        </g>
        <g transform="matrix(1,0,0,1,-0.418849,-1.25)">
            <path d="M16.2,36.6C15.5,36.6 15.2,36.2 15.2,35.5C15.5,34.9 16.1,34.6 16.6,34.3C16.8,34.2 16.9,34.1 17.1,34L17.3,34L18.3,34.3L20.1,33.2L20.3,33.2L21.6,34.1L24.8,32.5L25,32.5C25.8,32.9 25.8,33 25.8,33.8C25.8,33.9 25.8,34 25.7,34L22.2,35.9L22.2,36.1C22.2,36.2 22.1,36.2 22,36.2L20.9,36.2C20.8,36.2 20.8,36.2 20.7,36.1L20,35.3L18.5,36.5L18.3,36.5L17.1,36L16.3,36.5L16.2,36.6Z" style="fill:rgb(255,96,0);fill-rule:nonzero;"/>
        </g>
        <g transform="matrix(1,0,0,1,-0.418849,-1.25)">
            <path d="M19.9,19.1L15.5,19.1C15.2,19.1 14.8,19 14.5,19C14.3,19 14.2,18.9 14,18.9C13.9,18.9 13.8,18.8 13.8,18.7L13.8,17.9C13.8,17.8 13.8,17.8 13.9,17.7C14.3,17.4 19,17.3 20.5,17.3C22.8,17.3 24.7,17.4 25.6,17.5C25.7,17.5 25.8,17.6 25.8,17.7L25.8,18.7C25.8,18.8 25.7,18.9 25.6,18.9C25.5,18.9 25.3,19 25.2,19C24.9,19.1 24.5,19.2 24.2,19.2C22.8,19.1 21.4,19.1 19.9,19.1Z" style="fill:rgb(255,96,0);fill-rule:nonzero;"/>
        </g>
        <g transform="matrix(1,0,0,1,-0.418849,-1.25)">
            <path d="M18.5,21.7C17.4,21.7 16.4,21.7 15.3,21.6L14.5,21.6C14.4,21.6 14.3,21.5 14.1,21.5C14,21.5 14,21.4 13.9,21.4C13.8,21.4 13.8,21.3 13.8,21.2L13.9,20.2C13.9,20.1 14,20 14.1,20L18.9,20C19.1,20 19.3,20.1 19.5,20.3C19.6,20.3 19.6,20.4 19.7,20.4C19.8,20.4 19.8,20.5 19.8,20.6C19.8,21.4 19.3,21.8 18.8,21.8L18.5,21.7Z" style="fill:rgb(255,96,0);fill-rule:nonzero;"/>
        </g>
        <g transform="matrix(1,0,0,1,-0.418849,-1.25)">
            <path d="M31.7,26.3L31.3,25.9C30.4,25 29.5,24.2 28.8,23.3C28.8,23.3 28.7,23.2 28.8,23.2C28.8,22.5 29.2,22.2 29.9,22.1C30,22.1 30,22.1 30.1,22.2L32,24L35.4,20.7C35.4,20.7 35.5,20.6 35.6,20.6L35.7,20.6C36,20.7 36.4,20.8 36.5,21.1C36.6,21.3 36.6,21.6 36.5,22C36.5,22 36.5,22.1 36.4,22.1C35.9,22.5 35.5,23 35,23.5C34.1,24.4 33.2,25.4 32,26.2C31.8,26.3 31.8,26.3 31.7,26.3Z" style="fill:rgb(255,96,0);fill-rule:nonzero;"/>
        </g>
    </g>
</svg>
