<?xml version="1.0" encoding="UTF-8" standalone="no"?>
<!DOCTYPE svg PUBLIC "-//W3C//DTD SVG 1.1//EN" "http://www.w3.org/Graphics/SVG/1.1/DTD/svg11.dtd">
<svg width="100%" height="100%" viewBox="0 0 41 44" version="1.1" xmlns="http://www.w3.org/2000/svg" xmlns:xlink="http://www.w3.org/1999/xlink" xml:space="preserve" xmlns:serif="http://www.serif.com/" style="fill-rule:evenodd;clip-rule:evenodd;stroke-linejoin:round;stroke-miterlimit:2;">
    <g transform="matrix(0.950534,0,0,0.950534,1.00566,1.68029)">
        <g id="Capa_1">
            <g id="luHOYA_00000082367294782196981990000013537378871691724720_">
                <g>
                    <path d="M30.2,11C30.2,16.8 25.8,21.2 20.1,21.3C15.2,21.4 9.8,17.6 9.7,11.1C9.8,5 14.5,0.9 20,0.9C25.6,0.8 30.2,5.4 30.2,11ZM26.7,8.9L27.5,8.9C28.4,8.9 28.4,8.9 28.1,8.1C27.8,7.5 27.5,6.8 27.1,6.2C25,3.2 21.7,1.9 18.2,2.6C17.8,2.7 17.5,2.8 17.6,3.2C17.6,3.3 18.1,3.4 18.3,3.3C18.9,3.2 19.5,3 20.1,3C21.2,3 21.6,3.8 21.1,4.7C21,5 20.9,5.2 20.8,5.2C20,5.8 20.2,6.5 20.5,7.3C20.8,8 21.1,8.7 21.2,9.4C21.3,9.9 21.2,10.6 20.9,10.9C19.8,12 19,13.6 17,13.2C16.7,13.2 16.3,13.4 16,13.5C14.8,13.9 13.8,13.4 13.5,12.1C13.4,11.6 13.5,11 13.5,10.5C13.5,10.3 13.4,9.9 13.3,9.9C12.8,9.8 12.2,9.7 11.7,9.8C11.6,9.8 11.4,10.4 11.4,10.7C11.1,15.5 15.3,19.7 20.1,19.6C21,19.6 21.8,19.4 22,18.3C22,18 22.3,17.8 22.5,17.5C23.3,16.5 23.6,15.4 23.3,14.1C23.1,13.2 23.6,12.5 24.5,12.4C25.3,12.3 26.1,12.5 26.8,12.6C27.1,12.6 27.3,12.9 27.6,12.9C27.8,12.9 28.1,12.9 28.2,12.7C29,11.5 28.4,10.3 27,10.2L25.9,10.2C25.2,10.1 24.5,10.1 23.8,9.9C22.7,9.6 22.3,8.7 22.4,7.6C22.5,7.1 22.7,6.7 23.2,6.7C23.5,6.7 23.9,7.2 23.9,7.4C23.9,8.3 24.5,8.5 25.1,8.5C25.8,8.9 26.3,8.9 26.7,8.9ZM15.2,11.2C15.2,12 15.3,12.2 16,12C16.5,11.8 17,11.7 17.5,11.7C18.7,11.8 19,10.8 19.6,10.2C19.8,10 19.6,9.2 19.4,8.7C19.1,7.7 18.4,6.7 18.6,5.6C18.6,5.5 18.3,5.3 18.1,5.4C17,5.6 16.2,5.4 15.9,4.2C15.9,4.1 15.5,4 15.4,4.1C14,5 13,6.2 12.4,7.7C12.4,7.8 12.5,8.1 12.7,8.2C13,8.3 13.4,8.3 13.7,8.4C15.1,8.7 15.6,9.4 15.4,10.9C15.2,11 15.2,11.2 15.2,11.2ZM27.6,15C27.5,14.9 27.4,14.8 27.3,14.8C26.9,14.6 26.5,14.4 26.1,14.2C25.4,13.9 25.1,14.1 25.1,14.9C25.1,16 24.9,17.1 24.3,18C24.2,18.1 24.3,18.3 24.2,18.4C24.3,18.4 24.5,18.4 24.6,18.3C25.8,17.6 26.7,16.6 27.4,15.4C27.5,15.3 27.6,15.2 27.6,15Z" style="fill:rgb(255,96,0);fill-rule:nonzero;"/>
                    <path d="M24.4,37.9L24.4,35.8C24.4,35.5 24.4,35.1 24.5,34.9C25.3,34.2 25.1,33.3 25.2,32.4C25.4,28.5 27.2,25.2 29.6,22.3C30.2,21.6 31,21.1 31.9,20.7C32.4,20.4 32.5,20.3 32.4,19.7C32.2,18.5 32,17.3 31.9,16.1C31.8,14.8 31.9,13.5 32.7,12.4C33.9,10.5 35.9,10.6 37,12.5C38.2,14.5 38.7,16.8 39.2,19.1C39.5,20.3 39.6,21.5 39.7,22.7C40,25 39.5,27.2 38.1,29.1C37.7,29.7 37.2,30.2 36.9,30.8C36.4,31.7 36,32.6 35.6,33.5C35.4,34 35.4,34.6 36.3,34.6C36.8,34.6 37.1,35 37.1,35.5L37.1,38.8C37.1,39.4 36.7,39.6 36.2,39.7C33.7,40.1 31.2,40.5 28.7,40.9C27.7,41.1 26.7,41.2 25.7,41.3C24.7,41.4 24.5,41.3 24.4,40.2C24.3,39.4 24.4,38.7 24.4,37.9ZM30.4,34.5L32.4,34.5C33.9,34.5 33.7,34.8 34.2,33.2C34.5,32.1 35.1,31 35.6,29.9C36,29.2 36.6,28.5 37.1,27.8C37.9,26.6 38.3,25.4 38.2,24C38,20.7 37.4,17.6 36.2,14.5C36,14 35.8,13.6 35.5,13.2C35.1,12.6 34.6,12.6 34.2,13.2C33.9,13.8 33.6,14.5 33.5,15.1C33.3,17.1 33.8,19.1 34.4,21C34.8,22.1 34.9,23.2 34.5,24.2C33.8,25.7 33,27.1 32.2,28.5C31.8,29.1 31.2,29.2 30.8,28.9C30.3,28.5 30.6,28 30.8,27.6C31.4,26.5 32.1,25.5 32.7,24.3C32.9,23.8 33.1,23.3 33.2,22.7C33.3,22.2 32.9,21.9 32.5,22.1C32.1,22.3 31.6,22.6 31.3,22.9C28.9,25.8 27,28.9 27,32.8C27,34.3 26.8,34.3 28.4,34.3C29,34.5 29.7,34.5 30.4,34.5ZM34.1,36.1L28.4,36.1C25.7,36.1 25.7,36.1 25.9,38.8C26,39.3 26.1,39.5 26.6,39.4C27.7,39.2 28.8,39.1 29.8,38.9C31.3,38.7 32.8,38.5 34.2,38.2C35.4,38 35.4,37.8 35.4,36.8C35.4,35.8 34.6,36.1 34.1,36.1Z" style="fill:rgb(255,96,0);fill-rule:nonzero;"/>
                    <path d="M3.7,36.9L3.7,35.6C3.7,35 3.9,34.5 4.6,34.5C5.3,34.5 5.4,34.1 5.2,33.6C4.9,32.7 4.5,31.7 4,30.9C3.6,30.2 3,29.6 2.6,29C1.4,27.2 0.8,25.3 1.1,23.2C1.4,20.3 1.9,17.4 3,14.6C3.3,13.7 3.8,12.9 4.3,12.1C5.1,10.9 6.4,10.8 7.5,11.7C8.3,12.4 8.9,13.3 8.9,14.4C8.9,16.1 8.7,17.9 8.5,19.6C8.4,20.2 8.3,20.6 9.1,20.8C10.2,21.1 11,22 11.7,22.9C13.2,24.9 14.4,27.1 15.1,29.5C15.5,30.7 15.5,32.1 15.6,33.3C15.7,33.8 15.6,34.3 16,34.7C16.2,34.9 16.3,35.3 16.3,35.6L16.3,40.2C16.3,41.1 16,41.3 15.1,41.2C11.7,40.7 8.3,40.2 4.9,39.6C3.6,39.4 3.6,39.4 3.6,38.1C3.7,37.7 3.7,37.3 3.7,36.9ZM10.4,34.5L11.1,34.5C14.2,34.5 14.2,34.5 13.8,31.4L13.8,31.1C13,28.2 11.8,25.6 9.8,23.3C9.4,22.9 9,22.5 8.5,22.3C7.9,22 7.5,22.3 7.6,22.9C7.7,23.4 7.9,24 8.1,24.5C8.7,25.6 9.3,26.7 10,27.7C10.3,28.2 10.5,28.6 9.9,29C9.4,29.3 8.9,29.1 8.6,28.6C7.9,27.5 7.3,26.4 6.6,25.2C5.8,23.8 5.7,22.3 6.3,20.7C7,18.9 7.3,17 7.2,15.1C7.2,14.5 7,13.8 6.7,13.3C6.2,12.4 5.7,12.4 5.2,13.3C5,13.7 4.8,14.1 4.6,14.5C3.7,16.9 3.2,19.4 2.8,21.9C2.3,24.8 3.1,27.2 4.9,29.4C5.9,30.6 6.6,31.9 6.8,33.4C6.9,34.2 7.2,34.5 8,34.5C8.8,34.4 9.6,34.5 10.4,34.5ZM10.1,36.2L6.5,36.2C5.2,36.2 5.3,36.2 5.3,37.6C5.3,38.3 5.9,38.2 6.3,38.3C8.4,38.7 10.5,39 12.6,39.3C15,39.7 15,39.7 14.9,37.2C14.9,36.2 14.9,36.2 13.9,36.2C12.6,36.1 11.3,36.2 10.1,36.2Z" style="fill:rgb(255,96,0);fill-rule:nonzero;"/>
                    <path d="M34.3,6.9C34.1,6.8 33.7,6.6 33.7,6.6C33.8,5.4 32.1,5.8 32.2,4.7C32.2,4.5 32.3,4.3 32.5,4.2C33,4 33.5,3.7 33.7,3.1C33.8,2.6 34.7,2.6 34.9,3.1C35.1,3.6 35.4,4 35.9,4.2C36.4,4.4 36.5,5.3 36.1,5.4C35.5,5.7 35.1,6 34.9,6.7C34.7,6.7 34.5,6.8 34.3,6.9Z" style="fill:rgb(255,96,0);fill-rule:nonzero;"/>
                    <path d="M7.1,7.2C6.9,7.5 6.8,7.9 6.7,7.9C5.5,7.7 5.9,9.5 4.8,9.3C4.6,9.3 4.3,9.2 4.3,9C4,8.5 3.8,8.1 3.1,7.9C2.6,7.7 2.7,6.8 3.3,6.6C3.8,6.4 3.9,6.2 4.1,5.7C4.4,5.1 5.3,5 5.5,5.6C5.7,6.2 6,6.5 6.6,6.6C6.8,6.7 6.9,7 7.1,7.2Z" style="fill:rgb(255,96,0);fill-rule:nonzero;"/>
                    <path d="M17.4,23.3C17.6,23.4 17.9,23.5 17.9,23.5C17.9,24.6 19.5,24.3 19.4,25.4C19.4,25.6 19.3,25.9 19.2,25.9C18.5,26.1 18.2,26.5 17.9,27.1C17.7,27.6 16.9,27.5 16.6,26.9C16.4,26.4 16.2,26.2 15.7,26C15.1,25.7 15,25 15.5,24.7C16.1,24.4 16.5,24.1 16.7,23.4C16.9,23.4 17.2,23.4 17.4,23.3Z" style="fill:rgb(255,96,0);fill-rule:nonzero;"/>
                </g>
            </g>
        </g>
    </g>
</svg>
